<?xml version="1.0" encoding="UTF-8"?>
<svg id="pluginIcon" data-name="pluginIcon" xmlns="http://www.w3.org/2000/svg" viewBox="0 0 433.15 433.15">
  <defs>
    <style>
      .cls-1 {
        fill: #80cbc4;
      }
    </style>
  </defs>
  <path class="cls-1" d="M338.03,148.78h-28.13c-19.06,0-27.54-15.65-30.33-21.61-3.92-8.36-16.37-27.51-51-29.93-40.1-2.8-62,27.91-62,27.91l-30.16,51.15v25.7c0,21.21,17.26,38.47,38.47,38.47s38.47-17.26,38.47-38.47v-51c0-3.56,2.88-6.44,6.44-6.44s6.44,2.88,6.44,6.44v51c0,28.32-23.04,51.35-51.35,51.35s-51.35-23.04-51.35-51.35v-3.85l-36,61.06c-15.97,37.98,.58,60.7,.58,60.7,21.47,46.17,71.93,39.01,71.93,39.01h73.36v-99.49c0-32.92,31.81-35.25,31.81-35.25h27.78s21.88-1.48,38.92-13.82c17.04-12.35,20.67-34.22,20.67-34.22v-12.83c0-8.03-6.51-14.54-14.54-14.54Zm9.93,25.61c0,1.85-1.57,3.29-3.41,3.18-16.19-.99-20.63-14.2-21.84-20.83-.36-1.95,1.15-3.74,3.14-3.74h9.91c6.74,0,12.21,5.47,12.21,12.21v9.17Z"/>
  <ellipse class="cls-1" cx="298.71" cy="262.45" rx="45.36" ry="13.29"/>
  <path class="cls-1" d="M253.35,277.46v22.03c0,7.34,20.31,13.29,45.36,13.29s45.36-5.95,45.36-13.29v-22.03c-7.57,4.72-25.03,8.03-45.36,8.03s-37.79-3.31-45.36-8.03Zm72.57,14.84c3.5,0,6.34,2.84,6.34,6.34s-2.84,6.34-6.34,6.34-6.34-2.84-6.34-6.34,2.84-6.34,6.34-6.34Zm-20.87,1.61c3.5,0,6.34,2.84,6.34,6.34s-2.84,6.34-6.34,6.34-6.34-2.84-6.34-6.34,2.84-6.34,6.34-6.34Z"/>
  <path class="cls-1" d="M253.35,314.38v31.67c0,7.34,20.31,13.29,45.36,13.29s45.36-5.95,45.36-13.29v-31.67c-7.57,4.72-25.03,8.03-45.36,8.03s-37.79-3.31-45.36-8.03Zm72.57,19.96c3.5,0,6.34,2.84,6.34,6.34s-2.84,6.34-6.34,6.34-6.34-2.84-6.34-6.34,2.84-6.34,6.34-6.34Zm-20.87,1.61c3.5,0,6.34,2.84,6.34,6.34s-2.84,6.34-6.34,6.34-6.34-2.84-6.34-6.34,2.84-6.34,6.34-6.34Z"/>
</svg>
